<?xml version="1.0" standalone="no"?>
<!DOCTYPE svg PUBLIC "-//W3C//DTD SVG 20010904//EN"
 "http://www.w3.org/TR/2001/REC-SVG-20010904/DTD/svg10.dtd">
<svg version="1.0" xmlns="http://www.w3.org/2000/svg"
 width="350.000000pt" height="350.000000pt" viewBox="0 0 350.000000 350.000000"
 preserveAspectRatio="xMidYMid meet">
<metadata>
Created by potrace 1.11, written by Peter Selinger 2001-2013
</metadata>
<g transform="translate(0.000000,350.000000) scale(0.100000,-0.100000)"
fill="#000000" stroke="none">
<path d="M1667 2223 c-2 -1 -18 -5 -37 -8 -19 -3 -48 -8 -63 -11 l-29 -6 21
-19 c17 -16 21 -32 21 -79 l0 -60 -31 0 c-17 0 -54 7 -83 15 -68 20 -201 32
-251 23 -22 -3 -62 -9 -89 -13 l-49 -7 7 33 c9 47 33 78 69 94 30 13 25 14
-73 14 l-105 0 33 -20 c17 -12 32 -22 32 -22 0 -1 7 -23 14 -48 l14 -46 -111
4 c-62 2 -118 6 -124 8 -21 7 -17 102 5 114 12 7 -16 10 -97 9 -76 0 -109 -3
-98 -10 12 -6 17 -22 17 -55 l0 -45 -43 6 c-24 4 -68 9 -98 12 -30 2 -88 14
-129 25 -94 26 -279 31 -325 8 -39 -19 -43 -42 -8 -59 l28 -13 -33 -9 c-22 -6
-32 -15 -32 -28 0 -11 7 -20 15 -20 8 0 15 -5 15 -10 0 -6 -6 -10 -12 -9 -26
3 -40 -1 -36 -12 2 -6 7 -10 12 -9 5 1 14 -9 20 -22 8 -17 26 -26 66 -35 30
-6 49 -12 41 -12 -10 -1 -12 -10 -7 -32 4 -23 0 -39 -16 -61 -21 -30 -21 -31
-2 -44 10 -8 33 -26 49 -42 49 -44 174 -102 227 -105 l47 -2 -27 -22 c-22 -17
-25 -25 -16 -39 24 -40 76 -47 344 -46 238 0 566 9 670 17 65 5 326 16 463 20
113 3 207 10 292 20 22 3 65 7 96 10 116 9 298 33 412 56 54 10 122 19 150 19
36 0 47 3 37 10 -16 10 -13 12 35 24 11 3 3 4 -17 3 -26 -2 -38 1 -38 10 0 8
13 13 33 14 43 1 106 7 137 13 14 2 37 5 53 5 15 1 27 5 27 10 0 5 -15 8 -32
6 -120 -11 -221 -13 -203 -5 19 8 19 9 -2 9 -14 1 -21 6 -17 14 3 9 31 14 92
16 48 1 104 4 124 6 21 2 40 0 43 -6 4 -5 14 -9 23 -8 14 0 13 2 -3 9 -14 6
-2 9 45 11 126 4 150 6 157 12 3 4 -16 7 -43 8 -106 2 -258 10 -263 14 -2 3
52 5 120 5 123 0 170 10 140 29 -8 5 -55 8 -105 7 -50 -2 -105 1 -123 5 -18 3
-35 4 -38 1 -9 -9 -45 -9 -39 0 3 4 -5 8 -18 8 -18 0 -20 -2 -8 -10 12 -7 10
-9 -7 -7 -12 0 -19 5 -17 9 3 4 -2 8 -10 8 -9 0 -16 -4 -16 -10 0 -5 -5 -10
-11 -10 -5 0 -7 5 -3 11 4 8 0 9 -15 4 -13 -4 -21 -2 -21 5 0 9 49 11 188 7
103 -2 174 -1 157 3 -16 4 -46 8 -65 9 -24 1 -31 4 -21 10 7 5 10 14 7 20 -4
6 -1 11 6 12 7 0 20 2 28 3 8 2 49 6 90 10 41 4 77 10 80 12 4 4 -237 -3 -302
-9 -35 -3 -199 16 -204 24 -3 5 -2 9 3 10 4 0 24 2 43 4 19 2 89 6 155 10 66
4 140 8 165 10 25 2 90 6 145 10 55 3 113 8 128 11 43 9 18 25 -39 26 -52 1
-316 -11 -374 -17 -34 -3 -148 -12 -260 -20 -155 -11 -296 -17 -390 -17 -124
1 -192 1 -320 0 -129 -1 -241 4 -235 11 3 3 22 6 43 7 20 1 77 4 125 7 165 9
102 18 -91 13 l-192 -5 0 94 c0 88 -1 94 -20 92 -12 -1 -22 -2 -23 -4z m-1082
-170 c33 -3 62 -8 65 -11 3 -2 -35 -1 -85 3 -49 4 -104 8 -122 9 -18 1 -36 6
-40 10 -4 5 21 6 57 2 36 -4 92 -10 125 -13z m1205 -33 c0 -5 -12 -10 -27 -9
l-28 1 25 8 c14 4 26 8 28 9 1 1 2 -3 2 -9z m-1515 -10 l30 -2 -27 -9 c-19 -7
-40 -6 -75 5 l-48 15 45 -4 c25 -2 59 -4 75 -5z m-98 -18 c6 -4 -18 -7 -53 -7
-35 0 -64 3 -64 8 0 9 101 9 117 -1z m2253 -13 c0 -12 -81 -15 -96 -4 -11 7 0
10 41 10 30 0 55 -3 55 -6z m-1851 -15 c9 -9 -165 -3 -179 6 -10 6 18 7 80 4
52 -4 97 -8 99 -10z m1644 9 c-7 -2 -19 -2 -25 0 -7 3 -2 5 12 5 14 0 19 -2
13 -5z m477 -103 c0 -13 -11 -13 -30 0 -12 8 -11 10 8 10 12 0 22 -4 22 -10z
m-1 -132 c0 -13 -3 -18 -5 -11 -3 7 -21 10 -50 7 -52 -6 -58 1 -11 15 54 16
67 13 66 -11z m-5 -53 c-6 -14 -61 -28 -76 -19 -13 8 30 31 59 31 13 0 20 -4
17 -12z m-245 -26 c-8 -5 -23 -9 -34 -9 -17 0 -15 4 10 20 19 12 31 16 34 9 2
-6 -3 -15 -10 -20z m-149 -12 c8 -3 -16 -5 -55 -5 l-70 0 40 18 c33 16 42 17
55 6 8 -8 22 -16 30 -19z"/>
<path d="M2163 2043 c9 -2 25 -2 35 0 9 3 1 5 -18 5 -19 0 -27 -2 -17 -5z"/>
<path d="M2248 2043 c6 -2 18 -2 25 0 6 3 1 5 -13 5 -14 0 -19 -2 -12 -5z"/>
<path d="M2340 2046 c0 -2 7 -7 16 -10 8 -3 12 -2 9 4 -6 10 -25 14 -25 6z"/>
<path d="M2427 2039 c7 -7 15 -10 18 -7 3 3 -2 9 -12 12 -14 6 -15 5 -6 -5z"/>
<path d="M2538 2033 c7 -3 16 -2 19 1 4 3 -2 6 -13 5 -11 0 -14 -3 -6 -6z"/>
<path d="M3327 1889 c7 -7 15 -10 18 -7 3 3 -2 9 -12 12 -14 6 -15 5 -6 -5z"/>
<path d="M3467 1889 c7 -7 15 -10 18 -7 3 3 -2 9 -12 12 -14 6 -15 5 -6 -5z"/>
<path d="M3238 1883 c7 -3 16 -2 19 1 4 3 -2 6 -13 5 -11 0 -14 -3 -6 -6z"/>
<path d="M3278 1883 c6 -2 18 -2 25 0 6 3 1 5 -13 5 -14 0 -19 -2 -12 -5z"/>
<path d="M3148 1773 c7 -3 16 -2 19 1 4 3 -2 6 -13 5 -11 0 -14 -3 -6 -6z"/>
<path d="M2959 1765 c-3 -2 -21 -5 -41 -7 -20 -1 -35 -5 -33 -8 6 -9 85 1 85
11 0 10 -4 11 -11 4z"/>
<path d="M2986 1762 c-2 -4 12 -6 32 -4 56 5 62 10 15 11 -23 1 -44 -3 -47 -7z"/>
<path d="M3108 1743 c6 -2 18 -2 25 0 6 3 1 5 -13 5 -14 0 -19 -2 -12 -5z"/>
<path d="M2044 1390 c1 -38 4 -70 8 -70 5 0 8 16 8 36 0 31 3 36 20 31 11 -3
23 -1 26 4 3 5 -7 9 -21 9 -21 0 -26 4 -23 22 2 14 12 22 27 25 40 6 37 13 -5
13 l-40 0 0 -70z"/>
<path d="M2159 1434 c-17 -44 -39 -106 -39 -110 0 -2 5 -4 11 -4 5 0 8 4 5 9
-8 12 14 26 46 29 19 2 28 -2 33 -17 3 -12 10 -21 15 -21 9 0 -35 119 -50 134
-6 6 -13 -1 -21 -20z m36 -36 c6 -25 4 -28 -18 -28 -15 0 -24 5 -22 13 15 63
27 67 40 15z"/>
<path d="M2266 1444 c-23 -22 -20 -33 14 -52 52 -30 46 -68 -10 -56 -20 4 -22
3 -10 -5 21 -15 46 -13 64 4 20 20 13 37 -24 59 -17 9 -30 24 -30 32 0 14 8
17 43 17 9 0 17 4 17 8 0 15 -48 10 -64 -7z"/>
<path d="M2371 1450 c-3 -14 -4 -87 -2 -119 2 -27 14 -1 13 27 0 25 3 28 34
29 19 0 35 -3 35 -8 1 -5 2 -18 3 -28 0 -11 4 -23 9 -27 4 -4 7 26 7 67 0 47
-4 69 -9 60 -5 -8 -8 -23 -6 -33 3 -15 -3 -18 -35 -18 -36 0 -39 2 -43 33 -2
17 -5 25 -6 17z"/>
<path d="M2510 1389 c0 -40 3 -69 7 -65 10 10 11 126 1 132 -4 3 -8 -27 -8
-67z"/>
<path d="M2574 1435 c-28 -28 -27 -64 2 -96 37 -41 104 -8 104 51 0 35 -31 70
-60 70 -12 0 -32 -11 -46 -25z m76 -5 c11 -11 20 -29 20 -40 0 -11 -9 -29 -20
-40 -32 -32 -61 -24 -79 22 -8 22 -6 31 10 52 25 31 42 33 69 6z"/>
<path d="M2710 1390 c0 -38 4 -70 9 -70 5 0 8 25 7 55 -1 30 0 55 3 55 3 0 22
-25 41 -55 49 -77 51 -76 54 33 2 70 -12 67 -16 -5 l-3 -57 -38 57 c-20 31
-42 57 -47 57 -6 0 -10 -30 -10 -70z"/>
</g>
</svg>
